<?xml version="1.0" encoding="utf-8"?>
<!-- Generator: Adobe Illustrator 24.1.2, SVG Export Plug-In . SVG Version: 6.00 Build 0)  -->
<svg version="1.1" id="Layer_1" xmlns="http://www.w3.org/2000/svg" xmlns:xlink="http://www.w3.org/1999/xlink" x="0px" y="0px"
	 viewBox="0 0 25 25" style="enable-background:new 0 0 25 25;" xml:space="preserve">
<style type="text/css">
	.st0{fill:#962C2A;}
	.st1{fill:#861719;}
	.st2{fill:#989898;}
	.st3{fill:#666666;}
	.st4{fill:#FFFFFF;}
</style>
<path class="st3" d="M9.9,4.7v4.64l-7.47,4.27c-0.2,0.12-0.33,0.33-0.33,0.56v2.66c0,0.43,0.41,0.74,0.83,0.62l6.97-1.99v4.18
	L7.56,21.4C7.4,21.53,7.3,21.72,7.3,21.92v1.62c0,0.42,0.4,0.73,0.81,0.63l4.39-1.28l4.39,1.28c0.41,0.1,0.81-0.21,0.81-0.63v-1.62
	c0-0.2-0.1-0.4-0.26-0.52l-2.34-1.75v-4.18l6.97,1.99c0.42,0.12,0.83-0.19,0.83-0.62v-2.66c0-0.23-0.13-0.45-0.33-0.56L15.1,9.34
	V4.7c0-1.44-1.16-3.9-2.6-3.9S9.9,3.27,9.9,4.7z"/>
<g>
	<circle class="st0" cx="16.9" cy="8.6" r="4"/>
	<path class="st4" d="M19.33,8.2v0.81c0,0.17-0.14,0.3-0.3,0.3h-1.42v1.42c0,0.17-0.14,0.3-0.3,0.3h-0.81c-0.17,0-0.3-0.14-0.3-0.3
		V9.31h-1.42c-0.17,0-0.3-0.14-0.3-0.3V8.2c0-0.17,0.14-0.3,0.3-0.3h1.42V6.48c0-0.17,0.14-0.3,0.3-0.3h0.81
		c0.17,0,0.3,0.14,0.3,0.3v1.42h1.42C19.19,7.89,19.33,8.03,19.33,8.2z"/>
</g>
</svg>
