<?xml version="1.0" encoding="utf-8"?>
<!-- Generator: Adobe Illustrator 24.1.2, SVG Export Plug-In . SVG Version: 6.00 Build 0)  -->
<svg version="1.1" id="Layer_1" xmlns="http://www.w3.org/2000/svg" xmlns:xlink="http://www.w3.org/1999/xlink" x="0px" y="0px"
	 viewBox="0 0 25 25" style="enable-background:new 0 0 25 25;" xml:space="preserve">
<style type="text/css">
	.st0{fill:#962C2A;}
	.st1{fill:#861719;}
	.st2{fill:#989898;}
	.st3{fill:#666666;}
	.st4{fill:#FFFFFF;}
</style>
<path class="st3" d="M9.9,4.7v4.64l-7.47,4.27c-0.2,0.12-0.33,0.33-0.33,0.56v2.66c0,0.43,0.41,0.74,0.83,0.62l6.97-1.99v4.18
	L7.56,21.4C7.4,21.53,7.3,21.72,7.3,21.92v1.62c0,0.42,0.4,0.73,0.81,0.63l4.39-1.28l4.39,1.28c0.41,0.1,0.81-0.21,0.81-0.63v-1.62
	c0-0.2-0.1-0.4-0.26-0.52l-2.34-1.75v-4.18l6.97,1.99c0.42,0.12,0.83-0.19,0.83-0.62v-2.66c0-0.23-0.13-0.45-0.33-0.56L15.1,9.34
	V4.7c0-1.44-1.16-3.9-2.6-3.9S9.9,3.27,9.9,4.7z"/>
<circle class="st0" cx="16.9" cy="8.6" r="4"/>
<path class="st4" d="M19.33,10.76l-0.28,0.28c-0.09,0.09-0.24,0.09-0.33,0l-0.97-0.97c-0.04-0.04-0.07-0.1-0.07-0.17V9.73
	c-0.34,0.27-0.78,0.43-1.25,0.43c-1.12,0-2.03-0.91-2.03-2.03s0.91-2.03,2.03-2.03c1.12,0,2.03,0.91,2.03,2.03
	c0,0.47-0.16,0.91-0.43,1.25h0.16c0.06,0,0.12,0.02,0.17,0.07l0.97,0.97C19.42,10.52,19.42,10.67,19.33,10.76z M17.76,8.13
	c0-0.73-0.59-1.33-1.33-1.33c-0.73,0-1.33,0.59-1.33,1.33s0.59,1.33,1.33,1.33C17.16,9.46,17.76,8.87,17.76,8.13z"/>
</svg>
