<svg id="Layer_1" data-name="Layer 1" xmlns="http://www.w3.org/2000/svg" viewBox="0 0 197.66 95.46"><defs><style>.cls-1{fill:#962c2a;}</style></defs><path class="cls-1" d="M61.86,62.13c-1.42-1.56-2.6-2.83-3.75-4.12-5.35-6-12.19-9-20-10.3-9.21-1.59-18.16-.55-27,2.1A10,10,0,0,1,8,50.19c1.07-.94,2.13-1.91,3.23-2.82C23.43,37.28,36.72,29,51.75,23.82a74.29,74.29,0,0,1,27.92-4.34c.85,0,1.53.06,1.6,1.26C81.82,29,85.81,35.53,92,40.81c4.52,3.87,9.25,6.11,14.23,6.7-.59-.24-1.19-.46-1.77-.71C94.08,42.54,87,35.24,83.77,24.4a18.83,18.83,0,0,1-.56-5.26c0-2.24.87-3.16,3.09-3.67,3.43-.78,6.79,0,10.06.81,3.77,1,7.43,2.33,11.14,3.52.46.15.91.35,1.37.52l.19-.41-8.27-4.1,0-.42a57.65,57.65,0,0,1,7.36-.72c5,.12,10,.32,15,.9A240.81,240.81,0,0,1,173,27.33c3.35,1.14,6.58,2.65,9.88,3.93.91.35,1.12.74.82,1.7a14.6,14.6,0,0,0-.68,4.5c.48-1.27,1.05-2.51,1.43-3.8s1.12-1.41,2.21-1.12c2.37.65,3.25,2,2.38,4.31a50.06,50.06,0,0,1-3.46,7.42c-1.43,2.45-4.1,3.25-6.69,3.81-9.1,2-18.24,3.79-27.35,5.73-3.41.73-6.8,1.58-10.17,2.49-2.72.74-3.19,1.92-2,4.52l1.21,2.69A106.29,106.29,0,0,0,120.09,65c-11.2,2-19.83,20.47-29.55,20.47l-13.34,0C73.45,85.48,65.57,66.3,61.86,62.13Zm41.35-25.54c-1.7-2-3.11-3.69-4.53-5.36l.24-.34,4.86,2.24-2.5-4,.24-.2,4.2,1.87a6.2,6.2,0,0,0-.38-.65c-4.41-4.54-10-7-15.9-8.8-1.13-.33-1.57.52-1.39,1.38a17.64,17.64,0,0,0,1.42,4.43c2.79,5.29,7.06,9.22,11.93,12.55.76.52,1.56,1,2.35,1.46l.11-.19-3.67-5,.26-.24Zm26.3-10.32-.1.4c1,.31,2,.57,2.94.95a3,3,0,0,1,1.46.94,7.6,7.6,0,0,0,5.53,3.37c4.15.75,8.29.32,12.42-.06a7.48,7.48,0,0,0,2.2-1C145.81,28.8,137.83,26.54,129.51,26.27Zm4.22,34.26.5-.14c-.11-1.09-.23-2.17-.32-3.25a3.77,3.77,0,0,1,2.1-4c2.4-1.18,4.8-2.39,7.3-3.33,2.81-1.07,5.72-1.85,8.59-2.75a1.33,1.33,0,0,0-.92-.18,56.71,56.71,0,0,0-14.47,4.4,13.48,13.48,0,0,0-3.17,2.06c-.56.47-1.22,1.39-1.11,2A44.7,44.7,0,0,0,133.73,60.53Z"/></svg>