<svg id="Layer_1" data-name="Layer 1" xmlns="http://www.w3.org/2000/svg" viewBox="0 0 702.66 95.46"><defs><style>.cls-1{fill:#962c2a;}.cls-2{fill:#861719;}.cls-3{fill:#989898;}</style></defs><path class="cls-1" d="M55.86,62.13c-1.42-1.56-2.6-2.83-3.75-4.12-5.35-6-12.19-9-20-10.3-9.21-1.59-18.16-.55-27,2.1A10,10,0,0,1,2,50.19c1.07-.94,2.13-1.91,3.23-2.82C17.43,37.28,30.72,29,45.75,23.82a74.29,74.29,0,0,1,27.92-4.34c.85,0,1.53.06,1.6,1.26C75.82,29,79.81,35.53,86,40.81c4.52,3.87,9.25,6.11,14.23,6.7-.59-.24-1.19-.46-1.77-.71C88.08,42.54,81,35.24,77.77,24.4a18.83,18.83,0,0,1-.56-5.26c0-2.24.87-3.16,3.09-3.67,3.43-.78,6.79,0,10.06.81,3.77,1,7.43,2.33,11.14,3.52.46.15.91.35,1.37.52l.19-.41-8.27-4.1,0-.42a57.65,57.65,0,0,1,7.36-.72c5,.12,10,.32,15,.9A240.81,240.81,0,0,1,167,27.33c3.35,1.14,6.58,2.65,9.88,3.93.91.35,1.12.74.82,1.7a14.6,14.6,0,0,0-.68,4.5c.48-1.27,1.05-2.51,1.43-3.8s1.12-1.41,2.21-1.12c2.37.65,3.25,2,2.38,4.31a50.06,50.06,0,0,1-3.46,7.42c-1.43,2.45-4.1,3.25-6.69,3.81-9.1,2-18.24,3.79-27.35,5.73-3.41.73-6.8,1.58-10.17,2.49-2.72.74-3.19,1.92-2,4.52l1.21,2.69A106.29,106.29,0,0,0,114.09,65C102.89,67,94.26,85.5,84.54,85.5l-13.34,0C67.45,85.48,59.57,66.3,55.86,62.13ZM97.21,36.59c-1.7-2-3.11-3.69-4.53-5.36l.24-.34,4.86,2.24-2.5-4,.24-.2,4.2,1.87a6.2,6.2,0,0,0-.38-.65c-4.41-4.54-10-7-15.9-8.8-1.13-.33-1.57.52-1.39,1.38a17.64,17.64,0,0,0,1.42,4.43c2.79,5.29,7.06,9.22,11.93,12.55.76.52,1.56,1,2.35,1.46l.11-.19-3.67-5,.26-.24Zm26.3-10.32-.1.4c1,.31,2,.57,2.94.95a3,3,0,0,1,1.46.94,7.6,7.6,0,0,0,5.53,3.37c4.15.75,8.29.32,12.42-.06a7.48,7.48,0,0,0,2.2-1C139.81,28.8,131.83,26.54,123.51,26.27Zm4.22,34.26.5-.14c-.11-1.09-.23-2.17-.32-3.25a3.77,3.77,0,0,1,2.1-4c2.4-1.18,4.8-2.39,7.3-3.33,2.81-1.07,5.72-1.85,8.59-2.75a1.33,1.33,0,0,0-.92-.18,56.71,56.71,0,0,0-14.47,4.4,13.48,13.48,0,0,0-3.17,2.06c-.56.47-1.22,1.39-1.11,2A44.7,44.7,0,0,0,127.73,60.53Z"/><path class="cls-2" d="M193.25,70.65V29.17h6.29V35a14.74,14.74,0,0,1,5.2-4.9,14.55,14.55,0,0,1,7.38-1.86,13.72,13.72,0,0,1,7.56,1.91,10.28,10.28,0,0,1,4.16,5.36q4.92-7.28,12.81-7.27,6.18,0,9.49,3.42t3.32,10.53V70.65h-7V44.52a19.39,19.39,0,0,0-.68-6.07,5.86,5.86,0,0,0-2.48-3,7.73,7.73,0,0,0-4.22-1.14,9.83,9.83,0,0,0-7.27,2.91q-2.88,2.91-2.89,9.32v24.1h-7V43.7q0-4.7-1.72-7c-1.14-1.56-3-2.35-5.62-2.35a10.24,10.24,0,0,0-5.49,1.57,8.81,8.81,0,0,0-3.65,4.57,25.57,25.57,0,0,0-1.13,8.67V70.65Z"/><path class="cls-2" d="M250.88,49.91q0-11.52,6.4-17.07a19.33,19.33,0,0,1,13.05-4.61,18.58,18.58,0,0,1,14,5.61q5.43,5.59,5.43,15.48,0,8-2.4,12.6a17,17,0,0,1-7,7.13,20.39,20.39,0,0,1-10,2.54q-8.71,0-14.08-5.59T250.88,49.91Zm7.22,0q0,8,3.48,11.93a11.56,11.56,0,0,0,17.46,0q3.48-4,3.48-12.14Q282.52,42,279,38a11.58,11.58,0,0,0-17.44,0Q258.1,41.95,258.1,49.91Z"/><path class="cls-2" d="M291.59,70.65V29.17h6.33v5.9q4.56-6.84,13.2-6.84A17.25,17.25,0,0,1,318,29.58a10.89,10.89,0,0,1,4.71,3.53,13.65,13.65,0,0,1,2.19,5.2,40.27,40.27,0,0,1,.39,6.83V70.65h-7V45.42a19.13,19.13,0,0,0-.82-6.43,6.8,6.8,0,0,0-2.91-3.4,9.35,9.35,0,0,0-4.91-1.27,11.39,11.39,0,0,0-7.75,2.86Q298.63,40,298.62,48V70.65Z"/><path class="cls-2" d="M328.39,74.09l6.84,1a6.49,6.49,0,0,0,2.38,4.6,11.65,11.65,0,0,0,7.15,2q4.88,0,7.54-2a9.62,9.62,0,0,0,3.59-5.46,45.79,45.79,0,0,0,.51-9,14.47,14.47,0,0,1-11.49,5.43q-8.55,0-13.24-6.17A23.79,23.79,0,0,1,327,49.68a27.62,27.62,0,0,1,2.15-11A17.22,17.22,0,0,1,335.36,31,16.84,16.84,0,0,1,345,28.23a14.87,14.87,0,0,1,12.11,5.94v-5h6.49V65q0,9.69-2,13.73a14.41,14.41,0,0,1-6.25,6.38,21.56,21.56,0,0,1-10.52,2.35q-7.43,0-12-3.34T328.39,74.09Zm5.82-24.92q0,8.16,3.24,11.91a10.7,10.7,0,0,0,16.25,0c2.19-2.48,3.28-6.39,3.28-11.7q0-7.62-3.38-11.48a10.43,10.43,0,0,0-8.14-3.87,10.15,10.15,0,0,0-8,3.81Q334.21,41.67,334.21,49.17Z"/><path class="cls-2" d="M365.15,49.91q0-11.52,6.41-17.07a19.33,19.33,0,0,1,13.05-4.61,18.6,18.6,0,0,1,14,5.61Q404,39.44,404,49.32q0,8-2.4,12.6a17,17,0,0,1-7,7.13,20.39,20.39,0,0,1-10,2.54q-8.72,0-14.08-5.59T365.15,49.91Zm7.23,0q0,8,3.48,11.93a11.56,11.56,0,0,0,17.46,0q3.48-4,3.47-12.14,0-7.69-3.49-11.66a11.58,11.58,0,0,0-17.44,0Q372.38,41.95,372.38,49.91Z"/><path class="cls-2" d="M403.25,49.91q0-11.52,6.4-17.07a19.33,19.33,0,0,1,13.05-4.61,18.6,18.6,0,0,1,14,5.61q5.43,5.59,5.43,15.48,0,8-2.4,12.6a17,17,0,0,1-7,7.13,20.39,20.39,0,0,1-10,2.54q-8.71,0-14.08-5.59T403.25,49.91Zm7.22,0q0,8,3.48,11.93a11.56,11.56,0,0,0,17.46,0q3.48-4,3.48-12.14,0-7.69-3.5-11.66A11.58,11.58,0,0,0,414,38Q410.47,41.95,410.47,49.91Z"/><path class="cls-2" d="M441.14,58.27l7-1.09a9.68,9.68,0,0,0,3.26,6.4q2.67,2.23,7.48,2.23c3.23,0,5.62-.66,7.19-2a5.91,5.91,0,0,0,2.34-4.63,4.27,4.27,0,0,0-2.07-3.75c-1-.63-3.36-1.42-7.19-2.39a65.73,65.73,0,0,1-10.72-3.37,10.27,10.27,0,0,1-6.08-9.52,10.71,10.71,0,0,1,1.27-5.13A11.37,11.37,0,0,1,447,31.12a14.35,14.35,0,0,1,4.47-2.05,21.32,21.32,0,0,1,6.08-.84,24,24,0,0,1,8.57,1.41,11.55,11.55,0,0,1,5.45,3.81A14.85,14.85,0,0,1,474,39.87l-6.87.94a7.5,7.5,0,0,0-2.72-5A9.89,9.89,0,0,0,458.1,34c-3.23,0-5.54.54-6.92,1.6a4.67,4.67,0,0,0-2.07,3.75,3.86,3.86,0,0,0,.86,2.46,6.09,6.09,0,0,0,2.7,1.88q1.05.39,6.21,1.8a84.85,84.85,0,0,1,10.41,3.26,10.52,10.52,0,0,1,4.63,3.69,10.29,10.29,0,0,1,1.68,6,11.81,11.81,0,0,1-2.06,6.63,13.16,13.16,0,0,1-5.91,4.8,21.61,21.61,0,0,1-8.75,1.7q-8.08,0-12.33-3.36T441.14,58.27Z"/><path class="cls-2" d="M506,57.29l7.27.9a17.71,17.71,0,0,1-6.37,9.88Q502.2,71.6,495,71.59q-9.11,0-14.44-5.61t-5.33-15.72q0-10.47,5.39-16.25a18.28,18.28,0,0,1,14-5.78,17.75,17.75,0,0,1,13.59,5.66q5.28,5.67,5.27,15.94c0,.42,0,1,0,1.88H482.48q.39,6.82,3.86,10.47A11.53,11.53,0,0,0,495,65.81a10.81,10.81,0,0,0,6.6-2A13.49,13.49,0,0,0,506,57.29ZM482.87,45.93H506c-.31-3.49-1.2-6.11-2.65-7.86A10.81,10.81,0,0,0,494.67,34a11.18,11.18,0,0,0-8.15,3.24A12.85,12.85,0,0,0,482.87,45.93Z"/><path class="cls-3" d="M519.63,71.48l7.54-36h-6.33L522,30h6.32l1.22-5.9a28.12,28.12,0,0,1,1.93-6.37,7.79,7.79,0,0,1,3.24-3.22,12.54,12.54,0,0,1,6.11-1.27,39.11,39.11,0,0,1,7.82,1.14l-1.29,6.17a24.46,24.46,0,0,0-6-.94,4.38,4.38,0,0,0-3.14,1q-1.08,1-1.86,4.91L535.38,30h7.89l-1.14,5.47h-7.89l-7.54,36Z"/><path class="cls-3" d="M540.34,71.48l11.95-57.26h7.07l-12,57.26Z"/><path class="cls-3" d="M552,71.48,560.65,30h7.07l-8.67,41.48Zm10.31-49.25,1.68-8h7l-1.68,8Z"/><path class="cls-3" d="M564.84,75.23l7.15.67a7.23,7.23,0,0,0,.58,3.63,4.49,4.49,0,0,0,2.11,1.88,12.27,12.27,0,0,0,5,.86q6.4,0,9.22-3.32,1.85-2.24,3.4-9.69l.7-3.36q-5.51,5.58-11.71,5.58a13.69,13.69,0,0,1-10.53-4.62q-4.25-4.63-4.24-13.11a25.45,25.45,0,0,1,3.34-12.85,25,25,0,0,1,7.95-8.85,17.23,17.23,0,0,1,9.49-3q8.16,0,12.58,7.74l1.41-6.8h6.48l-8.36,40a33.43,33.43,0,0,1-3.59,10.29,15.1,15.1,0,0,1-6.2,5.72,19.72,19.72,0,0,1-9.16,2,25.67,25.67,0,0,1-8.61-1.29A10.92,10.92,0,0,1,566.42,83a9.57,9.57,0,0,1-1.78-5.69A12.58,12.58,0,0,1,564.84,75.23Zm8.83-22.11a18.9,18.9,0,0,0,.82,6.41,9.89,9.89,0,0,0,3.34,4.59,7.93,7.93,0,0,0,4.82,1.58,11.88,11.88,0,0,0,6.92-2.44,16.91,16.91,0,0,0,5.56-7.56,25.37,25.37,0,0,0,2.13-9.76,11.45,11.45,0,0,0-2.83-8.15,9.25,9.25,0,0,0-7-3,10,10,0,0,0-5,1.38,14.93,14.93,0,0,0-4.51,4.22,20.24,20.24,0,0,0-3.17,6.78A24.74,24.74,0,0,0,573.67,53.12Z"/><path class="cls-3" d="M601.72,71.48l11.95-57.26h7.08l-4.58,22a29.81,29.81,0,0,1,7.35-5.49,15.81,15.81,0,0,1,7-1.66q5.16,0,8,2.72A9.44,9.44,0,0,1,641.37,39a47.08,47.08,0,0,1-1.25,8L635,71.48h-7.07l5.28-25.11a49.05,49.05,0,0,0,1.13-6.88,4.3,4.3,0,0,0-1.41-3.32,5.79,5.79,0,0,0-4.06-1.29,14.84,14.84,0,0,0-12.75,7.52q-2,3.49-3.62,11.27l-3.71,17.81Z"/><path class="cls-3" d="M656.34,65.74l-1.17,5.78a19.21,19.21,0,0,1-4.93.67,10.18,10.18,0,0,1-6.71-2.07,5.25,5.25,0,0,1-1.88-4.26,42.59,42.59,0,0,1,1-6.29l5-24.1h-5.59L643.25,30h5.59L651,19.8l8.08-4.88L655.91,30h7l-1.17,5.47h-6.91L650,58.4a43.06,43.06,0,0,0-.9,5.23,2.49,2.49,0,0,0,.72,1.92,3.48,3.48,0,0,0,2.37.66A17.12,17.12,0,0,0,656.34,65.74Z"/><path class="cls-3" d="M657.9,57.3l7.07-.42a13,13,0,0,0,.94,5.19,7.53,7.53,0,0,0,3.46,3.52A12.16,12.16,0,0,0,675.25,67c3.12,0,5.47-.62,7-1.87a5.53,5.53,0,0,0,2.34-4.42,5.28,5.28,0,0,0-1.4-3.47c-1-1.1-3.32-2.44-7.05-4A67.26,67.26,0,0,1,669,49.77a11.67,11.67,0,0,1-4-3.77,9.41,9.41,0,0,1-1.33-5,11,11,0,0,1,3.91-8.44q3.9-3.52,10.94-3.52,7.81,0,11.89,3.62a12.54,12.54,0,0,1,4.24,9.51l-6.91.47a8,8,0,0,0-2.66-5.94c-1.67-1.46-4-2.19-7.07-2.19a8.69,8.69,0,0,0-5.7,1.68,4.73,4.73,0,0,0-2,3.63,4.39,4.39,0,0,0,1.75,3.44,29.61,29.61,0,0,0,6.06,3.13c5.41,2.34,8.83,4.19,10.23,5.54a10.58,10.58,0,0,1,3.36,7.89,11.17,11.17,0,0,1-1.89,6.06,13,13,0,0,1-5.78,4.74,21.82,21.82,0,0,1-9.16,1.78,20.66,20.66,0,0,1-12.23-3.55Q657.63,65.32,657.9,57.3Z"/></svg>